<?xml version="1.0" encoding="UTF-8"?>
<!DOCTYPE svg PUBLIC "-//W3C//DTD SVG 1.1//EN" "http://www.w3.org/Graphics/SVG/1.1/DTD/svg11.dtd">
<svg xmlns="http://www.w3.org/2000/svg" version="1.1" width="1024px" height="1024px" style="shape-rendering:geometricPrecision; text-rendering:geometricPrecision; image-rendering:optimizeQuality; fill-rule:evenodd; clip-rule:evenodd" xmlns:xlink="http://www.w3.org/1999/xlink">
<g><path style="opacity:1" fill="#fbfbfb" d="M -0.5,-0.5 C 340.833,-0.5 682.167,-0.5 1023.5,-0.5C 1023.5,340.833 1023.5,682.167 1023.5,1023.5C 682.167,1023.5 340.833,1023.5 -0.5,1023.5C -0.5,682.167 -0.5,340.833 -0.5,-0.5 Z"/></g>
<g><path style="opacity:1" fill="#009498" d="M 538.5,913.5 C 505.288,913.907 472.121,911.573 439,906.5C 437.615,906.514 436.449,906.848 435.5,907.5C 332.602,886.497 249.435,834.497 186,751.5C 115.309,652.706 91.3091,543.373 114,423.5C 146.153,290.042 224.32,194.542 348.5,137C 450.545,94.8323 553.545,92.499 657.5,130C 780.116,179.619 861.616,267.452 902,393.5C 937.391,527.219 913.724,649.219 831,759.5C 755.775,852.205 658.275,903.539 538.5,913.5 Z"/></g>
<g><path style="opacity:1" fill="#fefefe" d="M 675.5,549.5 C 630.005,549.241 584.338,549.241 538.5,549.5C 529.827,549.666 521.16,549.5 512.5,549C 510.34,547.668 508.34,546.168 506.5,544.5C 506.432,521.73 506.432,499.064 506.5,476.5C 507.962,475.542 509.295,474.376 510.5,473C 601.173,472.813 691.839,472.313 782.5,471.5C 791.532,470.704 797.032,474.704 799,483.5C 799.969,506.897 799.636,530.23 798,553.5C 795.519,557.314 792.019,559.481 787.5,560C 773.87,563.491 760.204,566.824 746.5,570C 745.299,570.903 744.465,572.069 744,573.5C 738.128,593.464 730.128,612.464 720,630.5C 719.333,632.167 719.333,633.833 720,635.5C 729.421,649.335 738.087,663.668 746,678.5C 747.114,683.041 746.114,687.041 743,690.5C 726.167,707.333 709.333,724.167 692.5,741C 690.138,743.356 687.305,744.856 684,745.5C 681.005,744.724 678.172,743.557 675.5,742C 662.126,733.314 648.46,725.148 634.5,717.5C 615.07,728.714 594.736,738.047 573.5,745.5C 568.254,760.815 564.087,776.482 561,792.5C 559.358,796.3 556.858,799.3 553.5,801.5C 525.078,801.983 496.745,801.483 468.5,800C 466.083,798.337 464.25,796.171 463,793.5C 459.78,777.619 455.78,761.952 451,746.5C 434.785,740.478 418.952,733.478 403.5,725.5C 399.335,722.864 395.002,720.364 390.5,718C 389.167,717.333 387.833,717.333 386.5,718C 372.429,727.064 358.096,735.731 343.5,744C 340.833,744.667 338.167,744.667 335.5,744C 315.365,726.198 296.198,707.365 278,687.5C 277.296,685.722 276.796,683.888 276.5,682C 277.58,678.338 279.08,674.838 281,671.5C 289.048,658.566 297.215,645.732 305.5,633C 293.652,613.124 284.318,592.124 277.5,570C 262.581,566.082 247.581,562.415 232.5,559C 228.759,557.262 225.592,554.762 223,551.5C 221.519,526.923 221.019,502.256 221.5,477.5C 221.394,474.921 222.061,472.588 223.5,470.5C 225.736,468.107 228.403,466.273 231.5,465C 245.072,461.286 258.739,457.952 272.5,455C 275.034,454.484 277.2,453.317 279,451.5C 284.539,429.092 293.372,408.092 305.5,388.5C 294.586,374.415 285.086,359.415 277,343.5C 276.333,341.5 276.333,339.5 277,337.5C 278.333,335.5 279.667,333.5 281,331.5C 298.629,313.639 316.462,296.139 334.5,279C 337.167,278.333 339.833,278.333 342.5,279C 356.667,286.58 370.333,294.913 383.5,304C 385.365,305.301 387.365,305.635 389.5,305C 408.934,293.2 429.434,283.7 451,276.5C 455.494,260.189 459.827,243.856 464,227.5C 465.938,224.894 468.438,223.061 471.5,222C 497.833,220.024 524.166,220.024 550.5,222C 555.235,223.068 558.402,225.901 560,230.5C 563.632,246.197 567.798,261.697 572.5,277C 594.547,284.36 615.547,293.86 635.5,305.5C 648.128,298.518 660.462,291.018 672.5,283C 678.476,278.096 684.81,277.429 691.5,281C 708.667,298.167 725.833,315.333 743,332.5C 747.29,337.884 747.623,343.551 744,349.5C 727.956,371.755 711.789,393.922 695.5,416C 682.167,416.667 668.833,416.667 655.5,416C 621.084,365.195 572.917,338.695 511,336.5C 442.479,339.901 391.479,371.234 358,430.5C 331.166,486.988 332.166,542.988 361,598.5C 391.37,648.16 435.537,676.993 493.5,685C 569.876,689.072 627.043,658.239 665,592.5C 671.013,580.46 675.847,567.96 679.5,555C 679.006,552.495 677.672,550.661 675.5,549.5 Z"/></g>
<g><path style="opacity:1" fill="#017c80" d="M 223.5,470.5 C 222.061,472.588 221.394,474.921 221.5,477.5C 220.668,497.329 220.168,517.329 220,537.5C 219.333,516.833 219.333,496.167 220,475.5C 220.471,473.754 221.138,472.087 222,470.5C 222.69,469.262 223.19,469.262 223.5,470.5 Z"/></g>
<g><path style="opacity:1" fill="#06868a" d="M 506.5,476.5 C 506.432,499.064 506.432,521.73 506.5,544.5C 505.169,530.257 504.503,515.257 504.5,499.5C 504.667,491.833 504.833,484.167 505,476.5C 505.69,475.262 506.19,475.262 506.5,476.5 Z"/></g>
<g><path style="opacity:1" fill="#0a8287" d="M 675.5,549.5 C 629.673,550.772 584.007,550.772 538.5,549.5C 584.338,549.241 630.005,549.241 675.5,549.5 Z"/></g>
<g><path style="opacity:1" fill="#1c9498" d="M 403.5,725.5 C 418.952,733.478 434.785,740.478 451,746.5C 455.78,761.952 459.78,777.619 463,793.5C 464.25,796.171 466.083,798.337 468.5,800C 496.745,801.483 525.078,801.983 553.5,801.5C 554.009,802.341 553.343,802.841 551.5,803C 538.333,803.167 525.167,803.333 512,803.5C 497.768,803.641 483.601,803.141 469.5,802C 465.763,800.719 463.263,798.219 462,794.5C 458.824,781.462 455.491,768.462 452,755.5C 450.342,757.62 448.675,759.62 447,761.5C 446.5,761.333 446,761.167 445.5,761C 447.836,758.952 447.836,757.118 445.5,755.5C 442.802,759.454 441.802,759.121 442.5,754.5C 440.632,753.087 438.632,751.92 436.5,751C 439.901,751.266 441.567,749.766 441.5,746.5C 442.822,746.33 443.989,746.663 445,747.5C 445.483,746.552 445.649,745.552 445.5,744.5C 442.797,744.045 440.13,743.378 437.5,742.5C 434.52,744.18 432.52,743.346 431.5,740C 421.707,736.626 412.374,732.293 403.5,727C 402.262,726.31 402.262,725.81 403.5,725.5 Z"/></g>
<g><path style="opacity:1" fill="#268f93" d="M 435.5,907.5 C 436.449,906.848 437.615,906.514 439,906.5C 472.121,911.573 505.288,913.907 538.5,913.5C 503.905,915.641 469.572,913.641 435.5,907.5 Z"/></g>
</svg>
